<svg width="1400" height="195" viewBox="0 0 1400 195" fill="none" xmlns="http://www.w3.org/2000/svg">
<g id="guneta">
<g id="text">
<path id="letter-G" d="M480.604 93.412H511.98V153.62C503.924 159.697 494.596 164.361 483.996 167.612C473.396 170.863 462.725 172.488 451.984 172.488C436.579 172.488 422.728 169.237 410.432 162.736C398.136 156.093 388.455 146.977 381.388 135.388C374.463 123.657 371 110.443 371 95.744C371 81.0453 374.463 67.9013 381.388 56.312C388.455 44.5813 398.207 35.4653 410.644 28.964C423.081 22.3213 437.073 19 452.62 19C465.623 19 477.424 21.1907 488.024 25.572C498.624 29.9533 507.528 36.3133 514.736 44.652L492.688 65.004C482.088 53.8387 469.297 48.256 454.316 48.256C444.847 48.256 436.437 50.2347 429.088 54.192C421.739 58.1493 416.015 63.732 411.916 70.94C407.817 78.148 405.768 86.416 405.768 95.744C405.768 104.931 407.817 113.128 411.916 120.336C416.015 127.544 421.668 133.197 428.876 137.296C436.225 141.253 444.564 143.232 453.892 143.232C463.785 143.232 472.689 141.112 480.604 136.872V93.412Z" fill="#F9F9F9"/>
<path id="letter-U" d="M609.815 172.488C588.615 172.488 572.079 166.623 560.207 154.892C548.476 143.161 542.611 126.413 542.611 104.648V21.544H576.955V103.376C576.955 129.947 587.979 143.232 610.027 143.232C620.768 143.232 628.965 140.052 634.619 133.692C640.272 127.191 643.099 117.085 643.099 103.376V21.544H677.019V104.648C677.019 126.413 671.083 143.161 659.211 154.892C647.48 166.623 631.015 172.488 609.815 172.488Z" fill="#F9F9F9"/>
<path id="letter-N" d="M847.061 21.544V169.944H818.865L744.877 79.844V169.944H710.957V21.544H739.365L813.141 111.644V21.544H847.061Z" fill="#F9F9F9"/>
<path id="letter-E" d="M997.076 142.384V169.944H882.172V21.544H994.32V49.104H916.304V81.328H985.204V108.04H916.304V142.384H997.076Z" fill="#F9F9F9"/>
<path id="letter-T" d="M1055.14 49.528H1007.65V21.544H1136.97V49.528H1089.49V169.944H1055.14V49.528Z" fill="#F9F9F9"/>
<path id="letter-A" d="M1245.73 138.144H1176.83L1163.69 169.944H1128.5L1194.64 21.544H1228.56L1294.92 169.944H1258.88L1245.73 138.144ZM1234.92 112.068L1211.39 55.252L1187.86 112.068H1234.92Z" fill="#F9F9F9"/>
</g>
</g>
<g id="divider">
<path id="line" d="M310 192V-0.999996" stroke="#F9F9F9" stroke-width="12"/>
</g>
<g id="logo">
<path id="dark" d="M45.2722 162L132 13L198.772 129.5H162.272L132 76.5L64.7722 192C56.4857 192.079 52.3691 190.692 46.7722 183.5C39.2722 173.5 45.2722 162 45.2722 162Z" fill="#A82200" stroke="#A82200" stroke-width="0.2"/>
<path id="light" d="M252.5 159.5L168.012 13.5C167.012 11.5 162.512 6.5 162.512 6.5C159.012 2 149.512 2 149.512 2C136.512 2 132.012 13 132.012 13L198 129.5H135.95L119 159.5H252.5Z" fill="#E5581D" stroke="#E5581D" stroke-width="0.2"/>
<path id="medium" d="M64.77 192L132 76L149 106.5L119 159.5H252.5C256.436 165.798 256.459 170.097 254.5 179C249.618 186.876 246.354 190.042 238 192H64.77Z" fill="#C73E0F" stroke="#C73E0F" stroke-width="0.2"/>
</g>
<g id="arrow">
<path id="circle-arrow" fill-rule="evenodd" clip-rule="evenodd" d="M1392 135C1392 156.539 1374.54 174 1353 174C1331.46 174 1314 156.539 1314 135C1314 113.461 1331.46 96 1353 96C1374.54 96 1392 113.461 1392 135ZM1344 112L1338.5 117.5L1355.5 135L1338.5 152L1344 158L1366.5 135L1344 112Z" fill="#F9F9F9"/>
</g>
</svg>
